<?xml version="1.0" encoding="utf-8"?>
<!-- Generator: Adobe Illustrator 17.1.0, SVG Export Plug-In . SVG Version: 6.00 Build 0)  -->
<!DOCTYPE svg PUBLIC "-//W3C//DTD SVG 1.1//EN" "http://www.w3.org/Graphics/SVG/1.1/DTD/svg11.dtd">
<svg version="1.1" xmlns="http://www.w3.org/2000/svg" xmlns:xlink="http://www.w3.org/1999/xlink" x="0px" y="0px"
	 viewBox="0 0 64 64" enable-background="new 0 0 64 64" xml:space="preserve">
<g id="Imagenes">
</g>
<g id="Layer_2">
	<path d="M20.725,22.457c-2.089,2.332-3.224,5.37-3.122,8.452c0.02,0.302,0.013,0.496,0.064,0.924
		c0.044,0.372,0.078,0.772,0.151,1.098c0.122,0.68,0.293,1.351,0.524,1.996c0.447,1.296,1.134,2.475,1.93,3.466
		c1.604,2.006,3.607,3.168,5.368,3.874c1.789,0.689,3.409,0.954,4.766,1.015c1.359,0.054,2.464-0.066,3.273-0.273
		c0.03-0.007,0.052-0.016,0.081-0.023c4.395-0.152,7.914-3.754,7.914-8.186c0-4.529-3.671-8.2-8.2-8.2s-8.2,3.671-8.2,8.2
		c0,0.317,0.022,0.628,0.057,0.936c-0.224-0.237-0.435-0.489-0.626-0.757c-0.777-1.131-1.26-2.471-1.258-4.274
		c-0.06-1.403,0.582-3.086,1.688-4.44c1.127-1.354,2.771-2.434,4.799-3.001c0.508-0.135,1.027-0.267,1.572-0.343
		c0.279-0.052,0.516-0.069,0.774-0.106l0.884-0.065c1.037-0.052,2.103,0.046,3.132,0.323c2.068,0.532,3.971,1.756,5.333,3.44
		c1.374,1.674,2.188,3.827,2.463,5.983c0.283,2.246,0.08,4.415-0.652,6.283c-0.757,1.85-2.026,3.376-3.51,4.444
		c-1.463,1.099-3.062,1.816-4.521,2.31c-1.463,0.501-2.804,0.775-3.913,0.959c-2.226,0.36-3.527,0.343-3.527,0.343l-0.018,0.335
		c0,0,1.312,0.181,3.625,0.08c1.154-0.064,2.563-0.193,4.158-0.55c1.589-0.356,3.393-0.917,5.187-1.988
		c1.796-1.045,3.535-2.717,4.694-4.925c0.563-1.107,0.965-2.323,1.233-3.587c0.107-0.633,0.226-1.277,0.26-1.927l0.04-0.49
		c0.005-0.096,0.016-0.133,0.017-0.277l0.008-0.227c0.012-0.297,0.022-0.603,0.01-0.968c-0.032-2.707-0.792-5.557-2.429-8.05
		c-1.625-2.485-4.123-4.502-7.019-5.569c-1.443-0.546-2.982-0.856-4.538-0.934l-1.06-0.024c-0.387,0.01-0.797,0.011-1.159,0.042
		c-0.742,0.036-1.491,0.143-2.236,0.272C25.77,18.592,22.78,20.081,20.725,22.457z"/>
	<path d="M38.672,13.962L32.013,2.636c0,0-6.258,11.488-6.026,11.404c2.019-0.73,4.194-1.136,6.465-1.136
		C34.633,12.904,36.72,13.288,38.672,13.962z"/>
	<path d="M39.693,14.336c4.128,1.696,7.523,4.797,9.602,8.709c0.293-0.747,3.184-12.519,3.184-12.519L39.693,14.336z"/>
	<path d="M51.529,31.982c0,2.305-0.43,4.505-1.179,6.551l11.352-7.435L50,24.493C50.983,26.793,51.529,29.323,51.529,31.982z"/>
	<path d="M50.064,39.315c-1.92,4.605-5.589,8.298-10.181,10.242l13.513,2.912L50.064,39.315z"/>
	<polygon points="26.23,50 26.235,50.002 26.234,50 	"/>
	<path d="M26.235,50.002l6.776,11.8L38.675,50c-1.953,0.674-4.041,1.059-6.223,1.059C30.272,51.059,28.186,50.675,26.235,50.002z"/>
	<path d="M15.341,40.375l-2.792,12.094l12.528-2.891C20.821,47.792,17.367,44.499,15.341,40.375z"/>
	<path d="M13.375,31.982c0-2.165,0.378-4.238,1.042-6.177L3.777,32l11.119,7.453C13.918,37.158,13.375,34.633,13.375,31.982z"/>
	<path d="M15.066,24.157c1.818-4.034,4.986-7.327,8.94-9.285c-1.15-0.376-13.468-3.342-13.468-3.342L15.066,24.157z"/>
</g>
</svg>
